<svg width="80" height="80" viewBox="0 0 80 80" fill="none" xmlns="http://www.w3.org/2000/svg">
<circle cx="40" cy="40" r="39" stroke="#D22027" stroke-width="2"/>
<path d="M44.4991 45.5012C44.4991 49.6431 47.8568 53.0008 51.9987 53.0008C56.1403 53.0008 59.498 49.6431 59.498 45.5012C59.498 41.3596 56.1403 38.002 51.9987 38.002C47.8587 38.0065 44.5037 41.3615 44.4991 45.5012ZM51.9987 39.5017C55.3123 39.5017 57.9983 42.1877 57.9983 45.5012C57.9983 48.8148 55.3123 51.5008 51.9987 51.5008C48.6852 51.5008 45.9992 48.8148 45.9992 45.5012C46.0028 42.1895 48.6867 39.5053 51.9987 39.5017Z" fill="#D22027"/>
<path d="M47.713 60.5H56.2842V61.9997H47.713V60.5Z" fill="#D22027"/>
<path d="M44.4991 57.5H59.4983V59H44.4991V57.5Z" fill="#D22027"/>
<path d="M28.0004 57.5H29.5004V59H28.0004V57.5Z" fill="#D22027"/>
<path d="M23.5004 59H25.0001V60.5H23.5004V59Z" fill="#D22027"/>
<path d="M28.0751 53.2802C31.991 46.4602 34.448 38.901 35.2903 31.0819L42.265 38.0151C42.4044 38.154 42.5929 38.2323 42.7899 38.2333C42.8304 38.2336 42.8713 38.2302 42.9112 38.2236C43.149 38.1848 43.3535 38.0342 43.4609 37.8188C44.8748 34.9969 44.3211 31.5866 42.0871 29.3571L41.4738 28.7435H46.7487C47.1629 28.7438 47.4991 28.4083 47.4991 27.9941C47.4994 27.913 47.4861 27.8325 47.4606 27.756C46.4647 24.7607 43.6618 22.7409 40.5053 22.7439H39.5305L43.2758 18.9769C43.568 18.6834 43.5668 18.2087 43.2734 17.9165C43.2165 17.8599 43.1511 17.8127 43.0794 17.777C40.2563 16.3617 36.8442 16.915 34.6132 19.1503L33.8971 19.8664C33.6635 20.1015 33.4466 20.352 33.2469 20.6164C33.0496 20.352 32.8342 20.1015 32.6025 19.8664L31.8863 19.1503C29.6571 16.9166 26.2468 16.3632 23.4255 17.777C23.0549 17.9622 22.9045 18.4127 23.0897 18.783C23.1254 18.8547 23.1726 18.92 23.2292 18.9769L26.9787 22.7439H25.9942C22.8377 22.7409 20.0346 24.7607 19.0389 27.756C18.9076 28.1487 19.1197 28.5735 19.5127 28.7048C19.5892 28.7305 19.6697 28.7435 19.7508 28.7435H25.0206L24.4073 29.3571C22.1733 31.5866 21.6196 34.9969 23.0331 37.8188C23.1408 38.0342 23.3454 38.1848 23.5829 38.2236C23.6231 38.2302 23.6636 38.2336 23.7045 38.2333C23.9027 38.2333 24.0927 38.1549 24.233 38.0151L30.7279 31.5587C29.9237 38.7452 27.2171 45.587 22.887 51.3784C21.8789 51.1137 20.8569 50.9052 19.8258 50.7546L19.3572 50.7074L19.2071 52.2004L19.6443 52.2431C20.3943 52.3505 21.1395 52.5021 21.8807 52.6736C21.7307 52.8618 21.5806 53.053 21.4254 53.2385L22.5757 54.2006C28.3389 47.3485 31.7747 38.8417 32.3867 29.9089L33.2499 29.0512L33.8962 29.6938C33.1077 39.2468 29.8287 48.4264 24.3861 56.3169L25.6145 57.1765C26.2041 56.3348 26.7666 55.4613 27.3118 54.5712C30.8198 56.2491 33.9173 58.6759 36.3861 61.6805L37.5461 60.7302C36.0863 58.9554 34.4138 57.3668 32.5658 56.0005H63.9977V54.5004H30.3439C29.6087 54.0566 28.8499 53.6545 28.0751 53.2802ZM42.5146 36.1469L34.5908 28.2688C36.6176 27.6637 38.8129 28.2128 40.3159 29.7011L41.0321 30.4175C42.5324 31.9151 43.1 34.1095 42.5146 36.1469ZM45.6045 27.2438H39.395C37.9488 26.5555 36.3172 26.3606 34.7496 26.6895C35.8409 25.155 37.6072 24.2437 39.4903 24.244H40.5026C42.6226 24.2407 44.5767 25.3897 45.6045 27.2438ZM34.9551 20.9268L35.6715 20.2107C37.1703 18.7101 39.3656 18.1422 41.4039 18.7279L36.9583 23.1999C35.5154 23.7309 34.2768 24.7033 33.4178 25.9785C33.069 24.1438 33.6444 22.2547 34.9575 20.9268H34.9551ZM30.8238 20.2107L31.5399 20.9268C31.8739 21.2678 32.1638 21.6496 32.4025 22.0629C32.0627 22.8529 31.8688 23.6973 31.8294 24.5559C31.1563 23.9678 30.3808 23.5085 29.5422 23.1999L25.0956 18.7279C27.1333 18.1425 29.328 18.7104 30.8259 20.2107H30.8238ZM25.9918 24.244H27.0044C28.8887 24.2422 30.6574 25.1531 31.7499 26.6886C30.1833 26.3609 28.5522 26.5558 27.107 27.2438H20.895C21.9225 25.3906 23.8751 24.2419 25.9942 24.244H25.9918ZM23.9849 36.1469C23.3995 34.1095 23.9674 31.9151 25.4677 30.4175L26.1839 29.7011C27.2628 28.6249 28.7259 28.0225 30.2501 28.0274C30.8126 28.0277 31.372 28.1078 31.912 28.2658L23.9849 36.1469Z" fill="#D22027"/>
</svg>
