<svg width="80" height="80" viewBox="0 0 80 80" fill="none" xmlns="http://www.w3.org/2000/svg">
<circle cx="40" cy="40" r="39" stroke="#D22027" stroke-width="2"/>
<path d="M53.1984 55.7119H50.4559C50.0755 55.7119 49.7671 56.0203 49.7671 56.4004C49.7671 56.7808 50.0755 57.0889 50.4559 57.0889H53.1984C53.5785 57.0889 53.8868 56.7808 53.8868 56.4004C53.8868 56.0203 53.5785 55.7119 53.1984 55.7119Z" fill="#D22027"/>
<path d="M41.2251 55.6821L39.0155 53.7482C38.7294 53.4983 38.2944 53.527 38.0438 53.8131C37.7935 54.0993 37.8225 54.5342 38.1087 54.7849L40.3183 56.7184C40.4488 56.8324 40.6105 56.8887 40.7715 56.8887C40.963 56.8887 41.1538 56.8091 41.29 56.6535C41.5403 56.3673 41.5113 55.9327 41.2251 55.6821Z" fill="#D22027"/>
<path d="M31.9529 55.7119H29.2104C28.83 55.7119 28.522 56.0203 28.522 56.4004C28.522 56.7808 28.83 57.0889 29.2104 57.0889H31.9529C32.3333 57.0889 32.6417 56.7808 32.6417 56.4004C32.6417 56.0203 32.3333 55.7119 31.9529 55.7119Z" fill="#D22027"/>
<path d="M19.9804 55.6821L17.7708 53.7482C17.4846 53.4983 17.0497 53.527 16.799 53.8131C16.5487 54.0993 16.5778 54.5342 16.8639 54.7849L19.0735 56.7184C19.204 56.8324 19.3658 56.8887 19.5268 56.8887C19.7183 56.8887 19.909 56.8091 20.0449 56.6535C20.2956 56.3673 20.2665 55.9327 19.9804 55.6821Z" fill="#D22027"/>
<path d="M62.8083 23.6014C62.6473 23.3816 62.3995 23.2356 62.1291 23.2019L52.6084 22.0078C52.2158 21.9583 51.8317 22.1466 51.6298 22.4862C51.4276 22.8261 51.4455 23.2535 51.6761 23.5748L53.8717 26.6364L43.7773 32.6279L38.1999 22.8878C38.008 22.5529 37.6796 22.3255 37.2984 22.2642C36.9172 22.2029 36.5339 22.3151 36.2467 22.573L26.371 31.4296C26.0877 31.6838 26.064 32.1188 26.3179 32.402C26.5718 32.685 27.0067 32.7086 27.2904 32.4547L37.0693 23.6849L42.8396 33.7614C42.9557 33.9647 43.1447 34.1096 43.3713 34.1691C43.5976 34.229 43.8332 34.196 44.0351 34.0763L55.0285 27.5511C55.2433 27.4238 55.3957 27.2108 55.4466 26.9667C55.4979 26.7225 55.4441 26.4661 55.2985 26.2635L53.3044 23.4827L61.5561 24.5175L60.0285 32.7954L58.0262 29.9734C57.7569 29.594 57.2506 29.4846 56.849 29.7191L53.2689 31.8068C53.1431 31.8509 53.0201 31.9061 52.9017 31.9746L51.4423 32.8173C51.3075 32.8951 51.1845 32.9862 51.0737 33.0873L49.7559 33.8557C49.6609 33.8701 49.5658 33.8912 49.4715 33.9203C49.4178 33.9364 49.3665 33.9594 49.3184 33.988L41.8137 38.4789L36.6637 30.3266C36.2947 29.7428 35.541 29.5621 34.9472 29.9156L28.2306 33.9188C28.2291 33.9196 28.2277 33.9196 28.2263 33.9203C28.1729 33.9364 28.1216 33.9594 28.0735 33.988L20.581 38.4718L25.3573 34.1881C25.6405 33.9343 25.6642 33.4989 25.4103 33.216C25.1565 32.9327 24.7211 32.9091 24.4379 33.1633L16.3149 40.4479C15.9513 40.7738 15.8954 41.3164 16.1847 41.7094C16.3691 41.96 16.6534 42.0949 16.9435 42.0949C17.1088 42.0949 17.2759 42.0515 17.4279 41.9608L17.8364 41.7173C18.0669 42.0522 18.3825 42.3254 18.7615 42.508C19.4217 42.8267 20.1786 42.8246 20.8373 42.5022L23.9204 40.9944L22.3165 48.829C22.2925 48.9484 22.2276 49.0574 22.1351 49.1367C21.8453 49.383 21.8102 49.8176 22.0565 50.107C22.1928 50.2673 22.3864 50.3494 22.5811 50.3494C22.7389 50.3494 22.8974 50.2956 23.0268 50.1855C23.3535 49.908 23.5801 49.524 23.6655 49.1059L24.0628 47.1803C24.4518 47.811 24.9818 48.3614 25.6327 48.7835L25.0374 50.2519C24.9499 50.429 24.7523 50.5506 24.416 50.7467C24.373 50.7722 24.3289 50.7976 24.2847 50.8238L20.3665 53.0685L20.0065 52.7716L20.8825 52.0215C21.1712 51.7741 21.2049 51.3395 20.9575 51.0508C20.7104 50.7618 20.2758 50.7281 19.9868 50.9755L18.7651 52.0218C18.541 52.2126 18.4137 52.4912 18.4166 52.7856C18.4187 53.08 18.5507 53.3561 18.7769 53.5422L19.6544 54.2666C19.8491 54.4265 20.0919 54.5086 20.3357 54.5086C20.5186 54.5086 20.7025 54.4624 20.8678 54.3688L24.9739 52.0165C24.9768 52.0147 24.9797 52.0129 24.9825 52.0111C25.0256 51.9856 25.0683 51.9609 25.1102 51.9365C25.5376 51.6866 26.0224 51.404 26.2932 50.8177C26.2978 50.8077 26.3021 50.7976 26.3061 50.7876L26.8346 49.4842L28.3403 50.3494C28.6451 50.5244 28.8215 50.864 28.79 51.2143L28.525 54.1271C28.5045 54.3523 28.5802 54.5771 28.7326 54.7442C28.8854 54.9109 29.1023 55.0067 29.3282 55.0067H30.9788C31.3556 55.0067 31.6787 54.7503 31.764 54.3842L32.7846 50.0292C32.9588 49.4888 32.8896 48.904 32.5927 48.4185C32.5845 48.4052 32.5759 48.3923 32.5669 48.3794L29.1988 43.6271L31.0462 38.6371C31.0472 38.6338 31.0483 38.631 31.0494 38.6277C31.1996 38.2039 31.2789 37.7679 31.2907 37.3336C31.3922 37.3483 31.494 37.3566 31.5955 37.3566C31.9634 37.3566 32.3263 37.2601 32.6533 37.0711L34.1128 36.2285C35.1261 35.6433 35.4747 34.3427 34.8894 33.3293L34.556 32.7517C34.4061 32.492 34.206 32.2726 33.9711 32.1008L35.5578 31.1552L40.6318 39.1868L39.0368 40.1413C38.7826 40.2934 38.6542 40.591 38.718 40.8803C38.8762 41.5964 39.3459 42.1899 40.0064 42.5083C40.6666 42.8271 41.4235 42.8249 42.0822 42.5026L48.1688 39.5256C48.5102 39.3585 48.6518 38.9462 48.4847 38.6048C48.3176 38.2631 47.9053 38.1218 47.5635 38.2889L41.4773 41.2658C41.2001 41.4014 40.8821 41.4021 40.6042 41.268C40.4733 41.2049 40.36 41.1159 40.27 41.0076L41.9471 40.004L50.1485 35.2208C50.2909 35.2452 50.4225 35.3195 50.5172 35.4385L50.5462 35.4747C50.5806 35.5568 50.6197 35.6375 50.6653 35.7164L50.9987 36.2941C50.9991 36.2948 50.9995 36.2955 51.0002 36.2962C51.2096 36.8915 51.2153 37.5466 50.9977 38.1637L49.2137 42.9827L46.5785 42.6779L46.2404 42.6385L46.2576 42.5524C46.3322 42.1795 46.0905 41.8166 45.7175 41.742C45.3446 41.6682 44.9817 41.9091 44.9072 42.282L43.5618 48.8269C43.5366 48.9481 43.4721 49.0582 43.3778 49.1381L40.0096 52.0218C39.7859 52.213 39.6589 52.4912 39.6615 52.786C39.664 53.08 39.7956 53.3561 40.0218 53.5422L40.8975 54.2648C41.0922 54.4258 41.3353 54.5086 41.5802 54.5086C41.7631 54.5086 41.9471 54.4624 42.1131 54.3684L46.2188 52.0161C46.2217 52.0143 46.2246 52.0129 46.2274 52.0111C46.2705 51.9856 46.3128 51.9609 46.3547 51.9365C46.7825 51.6866 47.2673 51.404 47.5381 50.8174C47.5427 50.8077 47.547 50.7976 47.551 50.7876L48.0795 49.4842L49.5852 50.3491C49.89 50.5244 50.0664 50.864 50.0345 51.2143L49.7699 54.1271C49.7494 54.3523 49.8251 54.5771 49.9775 54.7438C50.1299 54.9109 50.3472 55.0067 50.5731 55.0067H52.2237C52.5998 55.0067 52.9229 54.7507 53.0089 54.3842L54.0298 50.0292C54.2037 49.4888 54.1345 48.904 53.8376 48.4181C53.8294 48.4052 53.8208 48.3919 53.8118 48.3794L50.4437 43.6271L52.2911 38.6371C52.2921 38.6338 52.2932 38.631 52.2943 38.6277C52.4445 38.2039 52.5241 37.7675 52.5356 37.3336C52.6371 37.3483 52.7389 37.3566 52.8404 37.3566C53.2083 37.3566 53.5712 37.2601 53.8982 37.0711L55.3577 36.2285C56.371 35.6433 56.7196 34.3427 56.1343 33.3293L55.8009 32.7517C55.6772 32.5376 55.5187 32.3518 55.3354 32.1959L57.1595 31.1323L59.4286 34.3298C59.6603 34.6568 60.0633 34.8117 60.4545 34.7256C60.8458 34.6392 61.1459 34.3291 61.2187 33.9346L62.9836 24.3698C63.0331 24.1016 62.9693 23.8215 62.8083 23.6014ZM31.4704 49.6176C31.4628 49.6394 31.4564 49.6617 31.4514 49.6846L30.5266 53.6294H29.9529L30.1612 51.3387C30.2415 50.4548 29.7962 49.5975 29.0263 49.1553L26.5585 47.7371C25.2239 46.9701 24.5121 45.4946 24.7222 43.9936L25.2475 44.0542L28.043 44.378L31.4277 49.1528C31.508 49.2945 31.5238 49.4626 31.4704 49.6176ZM29.7531 38.1637L27.9688 42.9824L25.2102 42.6636L24.9955 42.6385L25.477 40.2331L26.9239 39.5253C27.2653 39.3582 27.4069 38.9458 27.2398 38.6044C27.0727 38.2627 26.6604 38.1214 26.3186 38.2885L24.5723 39.1427C24.5684 39.1445 24.5648 39.1462 24.5612 39.148L20.2324 41.2655C19.9556 41.401 19.6375 41.4017 19.3596 41.2676C19.2287 41.2045 19.1158 41.1159 19.0258 41.0084L28.7455 35.2151C28.9456 35.1954 29.1435 35.2761 29.2726 35.4382L29.3013 35.4744C29.3357 35.5561 29.3748 35.6372 29.4204 35.7161L29.7538 36.2941C29.7546 36.2948 29.7549 36.2955 29.7553 36.2962C29.965 36.8915 29.9704 37.5466 29.7531 38.1637ZM33.4243 35.0358L31.9649 35.8785C31.7924 35.9782 31.5916 36.0047 31.3994 35.9527C31.2341 35.9086 31.0924 35.8111 30.9927 35.6752C30.8737 35.3783 30.7209 35.0921 30.5327 34.8235C30.4606 34.5127 30.5954 34.1774 30.8859 34.0099L32.3453 33.1673C32.4604 33.1009 32.5877 33.0668 32.7168 33.0668C32.7817 33.0668 32.8466 33.0755 32.9112 33.0927C33.1034 33.1443 33.264 33.2677 33.3637 33.4398L33.6972 34.0174C33.9026 34.3735 33.78 34.8304 33.4243 35.0358ZM46.2827 50.2519C46.1948 50.4294 45.9976 50.5506 45.6609 50.7471C45.6179 50.7722 45.5741 50.7976 45.53 50.8238L41.6118 53.0685L41.2518 52.7716L44.2721 50.1855C44.5966 49.9094 44.8236 49.5261 44.9107 49.1059L45.3077 47.1806C45.6967 47.8114 46.2271 48.3614 46.8779 48.7835L46.2827 50.2519ZM52.7156 49.6176C52.7081 49.6394 52.7016 49.6617 52.6963 49.6846L51.7715 53.6294H51.1978L51.4061 51.3387C51.4864 50.4548 51.041 49.5975 50.2715 49.1553L47.8038 47.7371C46.4691 46.9701 45.757 45.4946 45.9671 43.9936L46.6291 44.0699L49.2879 44.378L52.6726 49.1528C52.7529 49.2945 52.7687 49.4626 52.7156 49.6176ZM53.9617 33.0668C54.0266 33.0668 54.0919 33.0755 54.1561 33.0927C54.3483 33.1443 54.5089 33.2677 54.6086 33.4398L54.9421 34.0174C55.1475 34.3735 55.0253 34.8304 54.6692 35.0358L53.2098 35.8785C53.0376 35.9782 52.8365 36.0047 52.6443 35.9527C52.479 35.9086 52.3373 35.8111 52.2376 35.6752C52.1186 35.3783 51.9658 35.0921 51.7779 34.8239C51.7256 34.5984 51.7826 34.361 51.9278 34.1831L53.8132 33.0837C53.862 33.0737 53.9119 33.0668 53.9617 33.0668Z" fill="#D22027"/>
</svg>
