<svg width="40" height="40" viewBox="0 0 40 40" fill="none" xmlns="http://www.w3.org/2000/svg">
<path d="M19.874 39.7478C30.85 39.7478 39.7479 30.8499 39.7479 19.8739C39.7479 8.89784 30.85 0 19.874 0C8.89796 0 0.00012207 8.89784 0.00012207 19.8739C0.00012207 30.8499 8.89796 39.7478 19.874 39.7478Z" fill="#D22027"/>
<path d="M28.6169 23.4729C28.5719 24.4159 28.4239 25.0589 28.2029 25.6169C27.9759 26.1999 27.6789 26.6919 27.1839 27.1819C26.6929 27.6759 26.2029 27.9759 25.6209 28.1999C25.0569 28.4209 24.4149 28.5669 23.4749 28.6119C22.5349 28.6559 22.2329 28.6649 19.8349 28.6649C17.437 28.6649 17.135 28.6559 16.192 28.6119C15.251 28.5669 14.609 28.4209 14.048 28.1999C13.466 27.9759 12.975 27.6769 12.485 27.1819C11.992 26.6919 11.69 26.1999 11.463 25.6169C11.245 25.0589 11.097 24.4169 11.056 23.4729C11.011 22.5319 11 22.2299 11 19.8269C11 17.432 11.011 17.132 11.056 16.192C11.097 15.25 11.245 14.61 11.463 14.044C11.691 13.464 11.992 12.975 12.485 12.48C12.975 11.994 13.466 11.688 14.048 11.465C14.609 11.243 15.25 11.095 16.192 11.052C17.134 11.011 17.436 11 19.8349 11C22.2319 11 22.5339 11.011 23.4749 11.052C24.4149 11.095 25.0569 11.243 25.6209 11.465C26.2019 11.688 26.6919 11.993 27.1839 12.48C27.6779 12.975 27.9759 13.464 28.2029 14.044C28.4239 14.61 28.5719 15.25 28.6169 16.192C28.6579 17.131 28.6699 17.432 28.6699 19.8269C28.6699 22.2289 28.6589 22.5309 28.6169 23.4729ZM27.0249 16.262C26.9889 15.401 26.8399 14.932 26.7209 14.623C26.5629 14.211 26.3689 13.917 26.0589 13.604C25.7509 13.295 25.4549 13.106 25.0459 12.945C24.7349 12.826 24.2659 12.683 23.4049 12.64C22.4749 12.597 22.1939 12.589 19.8359 12.589C17.474 12.589 17.196 12.597 16.265 12.64C15.404 12.683 14.937 12.826 14.624 12.945C14.212 13.106 13.917 13.296 13.609 13.604C13.3 13.917 13.105 14.21 12.948 14.623C12.83 14.932 12.682 15.4 12.641 16.262C12.601 17.193 12.593 17.472 12.593 19.8259C12.593 22.1909 12.601 22.4669 12.641 23.3989C12.682 24.2639 12.829 24.7269 12.948 25.0399C13.105 25.4539 13.301 25.7459 13.609 26.0589C13.917 26.3679 14.212 26.5539 14.624 26.7179C14.937 26.8399 15.403 26.9839 16.265 27.0239C17.197 27.0629 17.474 27.0719 19.8359 27.0719C22.1939 27.0719 22.4759 27.0629 23.4049 27.0239C24.2649 26.9839 24.7349 26.8399 25.0459 26.7179C25.4539 26.5539 25.7509 26.3669 26.0589 26.0589C26.3699 25.7459 26.5629 25.4549 26.7209 25.0399C26.8399 24.7269 26.9889 24.2649 27.0249 23.3989C27.0699 22.4659 27.0769 22.1909 27.0769 19.8259C27.0759 17.472 27.0699 17.192 27.0249 16.262ZM24.5489 16.176C23.9659 16.176 23.4879 15.701 23.4879 15.114C23.4879 14.53 23.9659 14.058 24.5489 14.058C25.1319 14.058 25.6099 14.53 25.6099 15.114C25.6099 15.701 25.1319 16.176 24.5489 16.176ZM19.8359 24.3669C17.332 24.3669 15.299 22.3399 15.299 19.8259C15.299 17.326 17.332 15.297 19.8359 15.297C22.3409 15.297 24.3709 17.326 24.3709 19.8259C24.3709 22.3399 22.3409 24.3669 19.8359 24.3669ZM19.8359 16.887C18.212 16.887 16.888 18.207 16.888 19.8259C16.888 21.4589 18.212 22.7749 19.8359 22.7749C21.4569 22.7749 22.7769 21.4589 22.7769 19.8259C22.7779 18.207 21.4569 16.887 19.8359 16.887Z" fill="white"/>
</svg>
