<svg width="148" height="57" viewBox="0 0 148 57" fill="none" xmlns="http://www.w3.org/2000/svg">
<path opacity="0.8" d="M62.57 42.085C62.57 43.0387 62.3438 43.7793 61.8913 44.3066C61.4421 44.834 60.8171 45.0977 60.0163 45.0977C59.2286 45.0977 58.6068 44.8438 58.1511 44.3359C57.6986 43.8281 57.4626 43.1087 57.4431 42.1777H56.8718V45H55.4362V37.8906H56.8718V41.0254H57.4431V40.8936C57.4431 40.2523 57.544 39.6989 57.7458 39.2334C57.9509 38.7646 58.2471 38.4082 58.6345 38.1641C59.0219 37.9167 59.4792 37.793 60.0066 37.793C60.7976 37.793 61.4209 38.0632 61.8767 38.6035C62.3324 39.1406 62.5635 39.8958 62.57 40.8691V42.085ZM61.1296 40.8936C61.1296 40.2523 61.0385 39.7754 60.8562 39.4629C60.6739 39.1504 60.3907 38.9941 60.0066 38.9941C59.6257 38.9941 59.3441 39.1455 59.1618 39.4482C58.9795 39.7477 58.8851 40.2051 58.8786 40.8203V42.085C58.8786 42.7067 58.9714 43.1657 59.157 43.4619C59.3425 43.7549 59.629 43.9014 60.0163 43.9014C60.3907 43.9014 60.669 43.7581 60.8513 43.4717C61.0336 43.182 61.1264 42.7344 61.1296 42.1289V40.8936ZM66.0066 42.5V45H64.571V37.8906H66.9929C67.696 37.8906 68.2559 38.1087 68.6726 38.5449C69.0925 38.9811 69.3025 39.5475 69.3025 40.2441C69.3025 40.9408 69.0958 41.4909 68.6823 41.8945C68.2689 42.2982 67.696 42.5 66.9636 42.5H66.0066ZM66.0066 41.3037H66.9929C67.2663 41.3037 67.4779 41.2142 67.6277 41.0352C67.7774 40.8561 67.8523 40.5957 67.8523 40.2539C67.8523 39.8991 67.7758 39.6175 67.6228 39.4092C67.4698 39.1976 67.2647 39.0902 67.0075 39.0869H66.0066V41.3037ZM74.7458 37.8906H76.1814V45H74.7458V40.293L72.6511 45H71.2107V37.8906H72.6511V42.6025L74.7458 37.8906ZM84.1296 46.748H82.8112V45H79.447V46.7432H78.0896L78.0114 43.8086H78.4851C78.6934 43.6165 78.8578 43.3073 78.9782 42.8809C79.0987 42.4544 79.1833 41.8962 79.2321 41.2061L79.4323 37.8906H83.5193V43.8086H84.2566L84.1296 46.748ZM80.028 43.8086H82.0886V39.0869H80.7995L80.6823 41.0449C80.601 42.2201 80.3829 43.1413 80.028 43.8086ZM89.4802 37.8906H90.9157V45H89.4802V40.293L87.3855 45H85.945V37.8906H87.3855V42.6025L89.4802 37.8906ZM97.8874 37.8906V45H96.4519V42.3193C96.071 42.404 95.7129 42.4463 95.3777 42.4463C94.6029 42.4463 94.0121 42.251 93.6052 41.8604C93.1983 41.4697 92.9867 40.9066 92.9704 40.1709V37.8906H94.4109V40.0928C94.4109 40.5094 94.4808 40.8073 94.6208 40.9863C94.764 41.1654 95.0163 41.2549 95.3777 41.2549C95.726 41.2549 96.084 41.2126 96.4519 41.1279V37.8906H97.8874ZM103.712 41.9238H101.475V43.8086H104.122V45H100.04V37.8906H104.112V39.0869H101.475V40.7666H103.712V41.9238ZM110.771 42.6318C110.735 43.4424 110.508 44.056 110.088 44.4727C109.668 44.8893 109.075 45.0977 108.31 45.0977C107.506 45.0977 106.889 44.834 106.46 44.3066C106.033 43.776 105.82 43.0208 105.82 42.041V40.8447C105.82 39.8682 106.041 39.1162 106.484 38.5889C106.927 38.0583 107.542 37.793 108.33 37.793C109.105 37.793 109.692 38.0094 110.092 38.4424C110.496 38.8753 110.726 39.4971 110.781 40.3076H109.341C109.328 39.8063 109.249 39.4613 109.106 39.2725C108.966 39.0804 108.707 38.9844 108.33 38.9844C107.946 38.9844 107.674 39.1195 107.514 39.3896C107.355 39.6566 107.27 40.0977 107.26 40.7129V42.0557C107.26 42.762 107.339 43.2471 107.495 43.5107C107.654 43.7744 107.926 43.9062 108.31 43.9062C108.688 43.9062 108.948 43.8151 109.092 43.6328C109.235 43.4473 109.316 43.1136 109.336 42.6318H110.771ZM114.725 42.0996H114.1V45H112.665V37.8906H114.1V40.7324H114.584L115.819 37.8906H117.567L115.829 41.2012L117.762 45H116.053L114.725 42.0996ZM122.693 43.5449H120.735L120.354 45H118.836L121.057 37.8906H122.371L124.607 45H123.074L122.693 43.5449ZM121.048 42.3486H122.376L121.712 39.8145L121.048 42.3486ZM128.927 45V42.4414H128.176L127.126 45H125.578L126.838 41.9238C126.252 41.5169 125.959 40.9049 125.959 40.0879C125.959 39.3848 126.156 38.8428 126.55 38.4619C126.947 38.0811 127.508 37.8906 128.234 37.8906H130.368V45H128.927ZM127.399 40.2002C127.399 40.5941 127.469 40.8805 127.609 41.0596C127.749 41.2354 127.967 41.3232 128.263 41.3232H128.927V39.0869H128.215C127.671 39.0869 127.399 39.458 127.399 40.2002ZM59.1618 48.5254C59.9203 48.5254 60.5306 48.8021 60.9929 49.3555C61.4584 49.9056 61.6911 50.6152 61.6911 51.4844C61.6911 52.3307 61.46 53.0257 60.9978 53.5693C60.5355 54.113 59.9236 54.3848 59.1618 54.3848V55.293H57.7849V54.3848C57.2673 54.3848 56.8181 54.2643 56.4372 54.0234C56.0596 53.7793 55.765 53.4375 55.5534 52.998C55.3418 52.5553 55.2361 52.054 55.2361 51.4941C55.2361 50.625 55.4688 49.9137 55.9343 49.3604C56.3998 48.8037 57.0167 48.5254 57.7849 48.5254V47.5977H59.1618V48.5254ZM57.7116 49.751C57.3633 49.751 57.0883 49.9056 56.8864 50.2148C56.6879 50.5241 56.5886 50.9505 56.5886 51.4941C56.5886 52.002 56.6879 52.4056 56.8864 52.7051C57.0883 53.0046 57.3666 53.1543 57.7214 53.1543H57.7849V49.751H57.7116ZM59.1618 49.751V53.1543H59.2351C59.5736 53.1543 59.8422 53.0046 60.0407 52.7051C60.2393 52.4023 60.3386 51.9954 60.3386 51.4844C60.3386 50.9473 60.2393 50.5241 60.0407 50.2148C59.8454 49.9056 59.572 49.751 59.2204 49.751H59.1618ZM67.1247 47.8906H68.5603V55H67.1247V50.293L65.03 55H63.5896V47.8906H65.03V52.6025L67.1247 47.8906ZM72.1433 52.5V55H70.7077V47.8906H73.1296C73.8327 47.8906 74.3926 48.1087 74.8093 48.5449C75.2292 48.9811 75.4392 49.5475 75.4392 50.2441C75.4392 50.9408 75.2325 51.4909 74.8191 51.8945C74.4056 52.2982 73.8327 52.5 73.1003 52.5H72.1433ZM72.1433 51.3037H73.1296C73.403 51.3037 73.6146 51.2142 73.7644 51.0352C73.9141 50.8561 73.989 50.5957 73.989 50.2539C73.989 49.8991 73.9125 49.6175 73.7595 49.4092C73.6065 49.1976 73.4014 49.0902 73.1443 49.0869H72.1433V51.3037ZM79.2761 47.8906L80.6189 53.0322L81.9568 47.8906H83.8318V55H82.3913V53.0762L82.5232 50.1123L81.1023 55H80.1257L78.7048 50.1123L78.8366 53.0762V55H77.4011V47.8906H79.2761ZM89.4704 53.5449H87.5124L87.1316 55H85.613L87.8347 47.8906H89.1482L91.3845 55H89.8513L89.4704 53.5449ZM87.8249 52.3486H89.153L88.489 49.8145L87.8249 52.3486Z" fill="#5B5B5B"/>
<path d="M135.528 6.24438H147.073V9.65699H143.152V30.1326H139.449V9.65699H135.528V6.24438Z" fill="#5B5B5B"/>
<path d="M127.832 16.337H132.914V19.7496H127.832V26.72H134.294V30.1326H124.056V6.24438H134.294V9.65699H127.832V16.337Z" fill="#5B5B5B"/>
<path d="M110.841 6.24438H122.386V9.65699H118.465V30.1326H114.762V9.65699H110.841V6.24438Z" fill="#5B5B5B"/>
<path d="M101.184 30.1326H97.3361V6.24438H100.676V21.4196L102.056 16.1192L105.105 6.24438H109.244V30.1326H105.831V13.36L104.307 19.1687L101.184 30.1326Z" fill="#5B5B5B"/>
<path d="M90.0026 6.24438C91.8905 6.24438 93.27 6.75265 94.2139 7.76917C95.1579 8.78569 95.5935 10.2379 95.5935 12.1983V15.2479C95.5935 17.2083 95.1579 18.6605 94.2139 19.677C93.27 20.6935 91.8905 21.2018 90.0026 21.2018H88.26V30.1326H84.4844V6.24438H90.0026ZM88.26 9.65699V17.7892H90.0026C90.5835 17.7892 91.0192 17.6439 91.3822 17.2809C91.6726 16.9905 91.8179 16.4096 91.8179 15.5383V11.9079C91.8179 11.0366 91.6726 10.4557 91.3822 10.1653C91.0192 9.87482 90.5835 9.65699 90.0026 9.65699H88.26Z" fill="#5B5B5B"/>
<path d="M82.7418 30.1326H78.9661L78.3127 25.8487H73.6657L73.0122 30.1326H69.5996L73.4479 6.24438H78.8935L82.7418 30.1326ZM74.174 22.5813H77.8044L75.9892 10.5283L74.174 22.5813Z" fill="#5B5B5B"/>
<path d="M59.7974 30.1326H56.0218V6.24438H67.857V30.1326H64.0087V9.65699H59.7974V30.1326Z" fill="#5B5B5B"/>
<path fill-rule="evenodd" clip-rule="evenodd" d="M1.3476 6.30908H42.6938V36.6909H1.3476V6.30908Z" fill="#FEFEFE"/>
<path fill-rule="evenodd" clip-rule="evenodd" d="M20.0299 6.37036L17.3348 11.2094L19.6624 15.3746H24.3789L26.7066 11.2706L23.9502 6.37036H20.0299Z" fill="#D22027"/>
<path fill-rule="evenodd" clip-rule="evenodd" d="M16.1709 0H28.9729V5.26781H44.0413V37.6709H0V5.26781H15.1296V0H16.1709ZM20.0912 7.47294L15.4972 15.7422L8.08547 7.47294H2.14387V35.5271H41.8974V7.47294H35.9558L28.6054 15.7422L23.9501 7.47294H20.0912ZM34.547 7.47294H25.1752L28.7892 13.9046L34.547 7.47294ZM18.8661 7.47294H9.4943L15.2521 13.9046L18.8661 7.47294ZM17.2735 5.26781H26.8291V2.14387H17.2735V5.26781Z" fill="#5B5B5B"/>
<path fill-rule="evenodd" clip-rule="evenodd" d="M22.0513 43.0001L17.0898 37.671L19.9074 16.4773H24.1952L26.9516 37.671L22.0513 43.0001Z" fill="#D22027"/>
</svg>
