<svg width="80" height="80" viewBox="0 0 80 80" fill="none" xmlns="http://www.w3.org/2000/svg">
<circle cx="40" cy="40" r="39" stroke="#D22027" stroke-width="2"/>
<path d="M38.5435 56.6647C38.398 56.5192 38.1962 56.4355 37.9904 56.4355C37.7839 56.4355 37.5829 56.5192 37.4374 56.6647C37.2919 56.8103 37.2083 57.012 37.2083 57.2177C37.2083 57.4235 37.2919 57.6253 37.4374 57.7707C37.5829 57.9162 37.7847 57.9999 37.9904 57.9999C38.1962 57.9999 38.398 57.9162 38.5435 57.7707C38.6889 57.6253 38.7726 57.4235 38.7726 57.2177C38.7726 57.012 38.6889 56.8102 38.5435 56.6647Z" fill="#D22027"/>
<path d="M26.5366 42.4717C26.1046 42.4717 25.7544 42.8219 25.7544 43.2539V50.5152C25.7544 50.9471 26.1046 51.2974 26.5366 51.2974C26.9686 51.2974 27.3188 50.9471 27.3188 50.5152V43.2539C27.3188 42.8219 26.9686 42.4717 26.5366 42.4717Z" fill="#D22027"/>
<path d="M27.0896 39.4412C26.9441 39.2957 26.7423 39.2119 26.5366 39.2119C26.3309 39.2119 26.1291 39.2956 25.9836 39.4412C25.8381 39.5866 25.7544 39.7877 25.7544 39.9941C25.7544 40.1998 25.8381 40.4016 25.9836 40.5471C26.1291 40.6926 26.3309 40.7763 26.5366 40.7763C26.7423 40.7763 26.9441 40.6927 27.0896 40.5471C27.2351 40.4016 27.3188 40.1998 27.3188 39.9941C27.3188 39.7884 27.2351 39.5867 27.0896 39.4412Z" fill="#D22027"/>
<path d="M62.0483 39.1491C62.0483 37.2763 60.6976 35.7139 58.9195 35.3823V30.3103C58.9195 28.1538 57.165 26.3993 55.0085 26.3993H50.9211L42.7508 18.229C42.4453 17.9237 41.9501 17.9237 41.6445 18.229L39.8263 20.0472L38.0081 18.229C37.7027 17.9237 37.2074 17.9237 36.9019 18.229L28.6831 26.448C28.599 26.4172 28.5087 26.3995 28.414 26.3995H25.911C23.7545 26.3995 22 28.154 22 30.3105C22 30.3675 22.0019 30.4241 22.0043 30.4805C22.0015 30.5073 22 30.5346 22 30.5622V54.089C22 56.2455 23.7545 58 25.911 58H34.6976C35.1296 58 35.4798 57.6497 35.4798 57.2178C35.4798 56.7859 35.1296 56.4356 34.6976 56.4356H25.911C24.6171 56.4356 23.5644 55.3829 23.5644 54.089V33.437C24.2185 33.9291 25.0312 34.2213 25.911 34.2213L42.2843 34.2371H51.1703C51.1958 34.2371 51.2213 34.2358 51.2467 34.2334C51.2481 34.2332 51.2496 34.233 51.2511 34.2328C52.4366 34.3496 53.3659 35.3522 53.3659 36.5679V41.4175H43.9014C41.7449 41.4175 39.9904 43.172 39.9904 45.3285C39.9904 47.485 41.7449 49.2394 43.9014 49.2394H53.3659V54.089C53.3659 55.3829 52.3132 56.4356 51.0193 56.4356H41.268C40.836 56.4356 40.4858 56.7859 40.4858 57.2178C40.4858 57.6497 40.836 58 41.268 58H51.0193C53.1758 58 54.9303 56.2455 54.9303 54.089V53.7762H55.0085C57.165 53.7762 58.9195 52.0217 58.9195 49.8652V49.1608C60.7025 48.7973 62.0483 47.2172 62.0483 45.3285V39.3056C62.0483 39.2892 62.0478 39.273 62.0468 39.2569C62.0478 39.221 62.0483 39.1851 62.0483 39.1491ZM40.6795 21.4067L42.1977 19.8884L43.8739 21.5646C42.874 22.1668 41.6179 22.1825 40.6043 21.6124C40.6394 21.547 40.6643 21.4776 40.6795 21.4067ZM23.5644 30.3103C23.5644 29.0164 24.6171 27.9637 25.911 27.9637H27.1672L23.7989 31.3321C23.6488 31.023 23.5644 30.6764 23.5644 30.3103ZM25.911 32.6569C25.5534 32.6569 25.2144 32.5762 24.9109 32.4325L37.455 19.8884L38.7201 21.1535L27.2167 32.6569H25.911ZM33.2932 32.6569C33.3996 32.5259 33.5126 32.3998 33.633 32.2795C34.5567 31.3557 35.7849 30.847 37.0912 30.847C38.3974 30.847 39.6256 31.3558 40.5493 32.2795C40.6697 32.3998 40.7827 32.5259 40.8891 32.6569H33.2932ZM49.6672 32.6569H42.7624C42.4671 32.1123 42.0968 31.6145 41.6555 31.1732C40.4363 29.954 38.8153 29.2826 37.0911 29.2826C35.3669 29.2826 33.7459 29.954 32.5267 31.1732C32.0853 31.6145 31.715 32.1123 31.4197 32.6569H29.429L39.3932 22.6928C40.2281 23.2922 41.2126 23.5928 42.1977 23.5928C43.1828 23.5928 44.1673 23.2922 45.0022 22.6928L50.1097 27.8004C49.0831 29.2305 48.9353 31.1004 49.6672 32.6569ZM51.238 32.281C50.6193 31.2538 50.6193 29.9559 51.238 28.9287L52.9142 30.6049L51.238 32.281ZM52.6961 33.0353L54.5735 31.158C54.8789 30.8525 54.8789 30.3572 54.5735 30.0517L52.4855 27.9637H55.0085C56.3024 27.9637 57.3551 29.0164 57.3551 30.3103V41.4174H54.9303V36.5678C54.9303 35.0111 54.0159 33.6643 52.6961 33.0353ZM57.3551 49.8651C57.3551 51.159 56.3024 52.2117 55.0085 52.2117H54.9303V49.2394H57.3551V49.8651ZM60.4839 45.3284C60.4839 46.6223 59.4312 47.675 58.1373 47.675H43.9014C42.6075 47.675 41.5548 46.6223 41.5548 45.3284C41.5548 44.0345 42.6075 42.9818 43.9014 42.9818H58.2155C59.0636 42.9818 59.8483 42.7049 60.4839 42.2368V45.3284ZM58.9195 41.305V36.9931C59.8266 37.29 60.4839 38.144 60.4839 39.1491C60.4839 40.1541 59.8266 41.0081 58.9195 41.305Z" fill="#D22027"/>
<path d="M44.6108 44.7751C44.4654 44.6296 44.2635 44.5459 44.0578 44.5459C43.8521 44.5459 43.6503 44.6295 43.5048 44.7751C43.3593 44.9206 43.2756 45.1224 43.2756 45.3281C43.2756 45.5338 43.3593 45.7356 43.5048 45.881C43.6503 46.0265 43.8521 46.1103 44.0578 46.1103C44.2635 46.1103 44.4654 46.0266 44.6108 45.881C44.7563 45.7356 44.84 45.5338 44.84 45.3281C44.84 45.1224 44.7563 44.9206 44.6108 44.7751Z" fill="#D22027"/>
<path d="M44.9631 27.8393C44.6575 27.5341 44.1623 27.534 43.8569 27.8393L42.4974 29.1988C42.192 29.5042 42.1919 29.9995 42.4974 30.3051C42.6501 30.4577 42.8503 30.5342 43.0505 30.5342C43.2507 30.5342 43.4509 30.4577 43.6036 30.3051L44.9631 28.9456C45.2685 28.6402 45.2686 28.145 44.9631 27.8393Z" fill="#D22027"/>
</svg>
