<svg width="80" height="80" viewBox="0 0 80 80" fill="none" xmlns="http://www.w3.org/2000/svg">
<circle cx="40" cy="40" r="39" stroke="#D22027" stroke-width="2"/>
<path d="M58.9591 20.3182L56.9506 18.5497L58.9591 16.7815C59.2714 16.5061 59.3782 16.0769 59.2316 15.6875C59.0842 15.2977 58.7202 15.046 58.3039 15.046H49.9927V14.6888C49.9927 14.3084 49.6843 14 49.3039 14C48.9234 14 48.6151 14.3084 48.6151 14.6888V23.979L42.9577 27.0509C42.9265 26.8021 42.8519 26.5575 42.734 26.3273L41.9368 24.7711C41.3896 23.7025 40.0751 23.279 39.0072 23.8259L38.3908 24.1414C37.873 24.4068 37.4897 24.8571 37.3111 25.4108C37.1326 25.9641 37.1803 26.5539 37.4456 27.0714L38.2427 28.628C38.4288 28.9912 38.7039 29.2788 39.0273 29.4803C38.6042 30.0501 38.4034 30.7508 38.1968 31.4787L38.0484 32.0044C37.9447 32.3705 38.1577 32.7513 38.5239 32.8546C38.5862 32.8725 38.6494 32.8808 38.7114 32.8808C39.0119 32.8808 39.288 32.6828 39.3741 32.3791L39.5225 31.8545C39.8244 30.7899 40.0098 30.2197 40.6 29.8991L41.6582 29.3243L41.7887 29.2576C41.8321 29.2354 41.8726 29.2103 41.9139 29.1856L49.4556 25.0902C49.4079 26.0329 48.9005 26.9236 48.065 27.431L43.1607 30.4108C43.1549 30.4141 43.1492 30.4173 43.1438 30.4209L41.6173 31.3482C41.2925 31.5458 41.1888 31.9696 41.3864 32.2948C41.5725 32.6014 41.9598 32.7104 42.2757 32.5566L41.1175 36.0578L40.2709 36.4049L37.9688 37.3483L38.6321 35.0032C38.7354 34.6371 38.5228 34.2563 38.1567 34.1526C37.7902 34.0487 37.4097 34.262 37.3061 34.6281L36.258 38.3348C36.2444 38.3825 36.2354 38.4348 36.2332 38.4847L35.9589 43.5235C35.9507 43.7157 35.9916 44.0789 35.9026 44.2664L32.8561 50.6757H30.6422C29.3452 50.6757 28.2903 51.7307 28.2903 53.0273V55.0156C27.9934 54.8797 27.6639 54.8037 27.3164 54.8037H21.6942C20.3976 54.8037 19.3426 55.8583 19.3426 57.1553V59.6223H17.6888C17.3084 59.6223 17 59.9307 17 60.3112C17 60.6916 17.3084 61 17.6888 61H58.3032C58.6837 61 58.992 60.6916 58.992 60.3112C58.992 59.9307 58.6837 59.6223 58.3032 59.6223H56.5117V41.8672C56.5117 40.5705 55.4568 39.5156 54.1602 39.5156H49.9927V27.4984C50.7565 26.4632 51.0394 25.1063 50.6848 23.8169C50.6292 23.6143 50.484 23.4479 50.2903 23.3658C50.1953 23.3253 50.0935 23.3073 49.9927 23.3113V22.0537H58.3036C58.7202 22.0537 59.0842 21.802 59.2312 21.4126C59.3782 21.0232 59.2714 20.5936 58.9591 20.3182ZM38.6225 25.8339C38.6881 25.6306 38.8286 25.4649 39.0187 25.3678L39.6351 25.0522C39.7513 24.9927 39.8753 24.9643 39.998 24.9643C40.2884 24.9643 40.5692 25.1232 40.7105 25.3989L41.508 26.9556C41.6941 27.3192 41.5736 27.7598 41.2426 27.9825L41.0181 28.1041L40.5445 28.3468C40.1525 28.5477 39.6699 28.392 39.4691 27.9997L38.6716 26.4435C38.5744 26.2534 38.5568 26.0369 38.6225 25.8339ZM37.2383 50.8876C37.0042 50.7808 36.7496 50.7109 36.4821 50.6861L37.2383 49.6817V50.8876ZM40.509 45.3372C40.8403 44.9402 40.9317 44.4766 41.0056 44.1029C41.0242 44.014 41.3642 42.1573 41.3642 42.1573C41.3642 42.1573 41.6858 42.3577 41.7195 42.372C41.7428 42.3824 41.7593 42.4054 41.7618 42.4323L42.1366 46.2415H39.828L40.509 45.3372ZM44.5824 41.5351L44.0008 46.2383H43.5207L43.1331 42.2975C43.0836 41.7926 42.7745 41.3519 42.3216 41.1328L41.6288 40.6935L42.0903 38.1358C42.0903 38.1358 44.0345 40.4454 44.0797 40.5042C44.482 41.0274 44.6197 41.2368 44.5824 41.5351ZM37.1419 44.8689C37.281 44.45 37.3456 44.0237 37.3348 43.5901L37.5851 38.9946L40.7711 37.689L40.192 40.8968C40.1902 40.9054 40.1884 40.9144 40.1873 40.923L39.7083 43.5754C39.6459 43.8501 39.5914 44.2668 39.42 44.4931L34.7652 50.6757H34.3815L37.1419 44.8689ZM20.7203 57.1549C20.7203 56.6181 21.157 56.1814 21.6942 56.1814H27.3164C27.8535 56.1814 28.2907 56.6181 28.2907 57.1549V59.6223H20.7203V57.1549ZM29.668 57.1549V53.0273C29.668 52.4901 30.1051 52.0534 30.6422 52.0534H36.2644C36.8016 52.0534 37.2383 52.4901 37.2383 53.0273V59.6223H29.6683L29.668 57.1549ZM55.1341 41.8672V59.6223H47.5641V55.4922C47.5641 55.1117 47.2557 54.8034 46.8752 54.8034C46.4944 54.8034 46.186 55.1117 46.186 55.4922V59.6223H38.616V48.5927C38.616 48.0559 39.0528 47.6192 39.5899 47.6192H45.2121C45.7493 47.6192 46.186 48.0559 46.186 48.5927V52.0459C46.186 52.4263 46.4944 52.7347 46.8749 52.7347C47.2557 52.7347 47.5637 52.4263 47.5637 52.0459V41.8672C47.5637 41.33 48.0008 40.8933 48.538 40.8933H49.2967C49.2989 40.8933 49.3014 40.8936 49.3039 40.8936C49.306 40.8936 49.3086 40.8933 49.3107 40.8933H54.1598C54.697 40.8933 55.1341 41.3304 55.1341 41.8672ZM48.538 39.5156C47.2413 39.5156 46.1864 40.5705 46.1864 41.8672V46.4534C45.9397 46.3408 45.6707 46.2695 45.3878 46.2487L45.9497 41.7047C46.0602 40.819 45.6084 40.232 45.1716 39.664C45.1253 39.6038 42.4478 36.4246 42.4478 36.4246L44.0905 31.4583L48.6151 28.7094V39.5156H48.538ZM49.9927 20.6757V16.424H57.2802L55.7107 17.806C55.497 17.9942 55.3743 18.2653 55.3743 18.55C55.3743 18.8348 55.497 19.1058 55.7107 19.2941L57.2802 20.6761L49.9927 20.6757Z" fill="#D22027"/>
</svg>
