<svg width="60" height="60" viewBox="0 0 60 60" fill="none" xmlns="http://www.w3.org/2000/svg">
<circle cx="30" cy="30" r="30" fill="#FBFBFB"/>
<path fill-rule="evenodd" clip-rule="evenodd" d="M48.183 38.3727C47.9489 38.0098 47.6696 37.689 47.3527 37.4191L44.1317 34.6098C44.1067 34.572 44.0776 34.5362 44.0443 34.5029C43.9883 34.447 43.9249 34.4033 43.8575 34.3707L41.9096 32.6718L32.8937 24.807C33.2627 24.4212 33.4659 23.9166 33.4659 23.3801C33.4659 22.8274 33.2508 22.308 32.8597 21.917C32.6892 21.7466 32.4954 21.6127 32.2882 21.5146L33.1223 20.6805C33.3554 20.7425 33.595 20.7742 33.8347 20.7742C34.5407 20.7741 35.2467 20.5054 35.7841 19.968C36.3051 19.4471 36.5921 18.7546 36.5921 18.0182C36.5921 17.2818 36.3051 16.5893 35.7842 16.0684L29.9353 10.2196C29.4143 9.69865 28.7218 9.41174 27.9852 9.41174C27.2489 9.41174 26.5566 9.69865 26.0357 10.2196C25.3158 10.9395 25.0788 11.9618 25.3232 12.8815L17.0011 21.2035C16.7711 21.1424 16.5319 21.1101 16.2874 21.1101C15.5507 21.1101 14.8585 21.3968 14.338 21.9173C13.2629 22.9924 13.2629 24.7417 14.338 25.8169L20.1868 31.6658C20.7245 32.2034 21.4306 32.4721 22.1367 32.4721C22.8428 32.4721 23.5489 32.2034 24.0865 31.6658C24.8065 30.9458 25.0435 29.9236 24.799 29.0039L25.6314 28.1715C25.7314 28.3803 25.8672 28.5731 26.0358 28.7416C26.4264 29.1322 26.9457 29.3474 27.4982 29.3474C28.0342 29.3474 28.5385 29.1445 28.9249 28.7758L38.5279 39.809C38.5543 39.8504 38.5852 39.8898 38.6213 39.9259C38.6337 39.9382 38.6468 39.9495 38.6598 39.9606L41.5213 43.2484C41.5925 43.3323 41.6685 43.4149 41.7474 43.4939C42.5334 44.2795 43.5714 44.7059 44.6613 44.7059C44.8534 44.7059 45.0473 44.6926 45.2415 44.6657C46.5395 44.4861 47.6613 43.7096 48.319 42.5351C49.0396 41.2479 48.986 39.6137 48.183 38.3727ZM27.0107 11.1945C27.2712 10.934 27.6173 10.7904 27.9853 10.7904C28.3536 10.7904 28.7 10.934 28.9605 11.1945L34.8094 17.0433C35.0699 17.3038 35.2134 17.6501 35.2134 18.0183C35.2134 18.3864 35.0699 18.7327 34.8093 18.9932C34.272 19.5307 33.3975 19.5307 32.8602 18.9932L27.011 13.1441L27.0107 13.1437C26.4732 12.6063 26.4732 11.7319 27.0107 11.1945ZM23.1117 30.691C22.5741 31.2285 21.6993 31.2286 21.1617 30.691L15.3128 24.8421C14.7752 24.3045 14.7752 23.4298 15.3128 22.8921C15.5729 22.632 15.9191 22.4888 16.2874 22.4888C16.6558 22.4888 17.0017 22.632 17.2617 22.8919L23.1116 28.7418C23.6491 29.2791 23.6491 30.1536 23.1117 30.691ZM26.0139 25.8394L24.0865 27.7669L18.237 21.9174L26.0357 14.1185L31.8851 19.968L29.9542 21.8991C29.9479 21.905 29.9417 21.9108 29.9351 21.9173L26.0377 25.8148C26.0305 25.8219 26.0235 25.8292 26.0165 25.8367L26.0139 25.8394ZM28.4753 27.2774L28.4712 27.2815L27.9858 27.7669C27.8556 27.897 27.6825 27.9687 27.4982 27.9687C27.3139 27.9687 27.1407 27.897 27.0106 27.7668C26.8802 27.6365 26.8085 27.4632 26.8085 27.2788C26.8085 27.0984 26.8773 26.9286 27.0023 26.8005L30.9179 22.885C31.1862 22.624 31.6201 22.6272 31.8853 22.8921C32.0156 23.0224 32.0873 23.1957 32.0873 23.3801C32.0873 23.5644 32.0158 23.7372 31.8852 23.8674L31.4026 24.35L31.3927 24.3599L28.4753 27.2774ZM29.9028 27.7996L31.9175 25.7849L40.4475 33.2253L37.3349 36.3381L29.9028 27.7996ZM38.2421 37.3805L41.4889 34.1337L42.5303 35.042L39.1494 38.423L38.2421 37.3805ZM47.1162 41.8616C46.6713 42.656 45.9191 43.1802 45.0526 43.3001C44.188 43.4198 43.3385 43.1351 42.7221 42.5189C42.6691 42.466 42.6184 42.4108 42.5711 42.3548L42.5644 42.347L40.0566 39.4654L43.5716 35.9503L46.4496 38.4607L46.4562 38.4664C46.6716 38.6496 46.8628 38.8695 47.025 39.1209C47.5463 39.9264 47.5828 41.0279 47.1162 41.8616ZM20.6738 21.4301C20.9425 21.1612 21.3796 21.1612 21.6484 21.4301C21.9179 21.6996 21.9179 22.136 21.6484 22.4048C21.3797 22.6744 20.9426 22.6744 20.6738 22.4048C20.4042 22.136 20.4042 21.6996 20.6738 21.4301ZM31.4519 38.8457C31.4519 39.3672 31.2876 39.8631 30.9837 40.2748C32.0805 40.8522 32.8305 42.0029 32.8305 43.3262V44.0155C32.8305 44.3963 32.5218 44.7049 32.1411 44.7049H14.2189C13.8382 44.7049 13.5295 44.3963 13.5295 44.0155V43.3262C13.5295 42.0023 14.2803 40.8511 15.3779 40.274C15.083 39.8738 14.9082 39.3799 14.9082 38.8457C14.9082 38.2009 15.1591 37.5951 15.6147 37.1396C16.0702 36.684 16.676 36.433 17.3208 36.433H29.0392C30.3696 36.433 31.4519 37.5154 31.4519 38.8457ZM17.3208 37.8116C17.0444 37.8116 16.7847 37.9191 16.5895 38.1143C16.3943 38.3095 16.2868 38.5693 16.2868 38.8456C16.2868 39.4157 16.7506 39.8796 17.3208 39.8796H29.0392C29.3155 39.8796 29.5753 39.7721 29.7704 39.5769C29.9656 39.3816 30.0732 39.122 30.0732 38.8455C30.0732 38.2755 29.6094 37.8116 29.0392 37.8116H17.3208ZM16.9761 41.2582C15.8359 41.2582 14.9082 42.186 14.9082 43.3262H31.4519C31.4519 42.186 30.5241 41.2582 29.3839 41.2582H29.0392H17.3208H16.9761ZM25.5478 16.5558C25.817 16.2866 26.2534 16.2866 26.5226 16.5558C26.7918 16.825 26.7918 17.2615 26.5226 17.5306L23.5979 20.4553C23.4633 20.5899 23.2869 20.6572 23.1105 20.6572C22.9341 20.6572 22.7577 20.5899 22.623 20.4553C22.3538 20.1862 22.3538 19.7497 22.623 19.4805L25.5478 16.5558Z" fill="#D22027"/>
</svg>
