<svg width="60" height="60" viewBox="0 0 60 60" fill="none" xmlns="http://www.w3.org/2000/svg">
<circle cx="30" cy="30" r="30" fill="#FBFBFB"/>
<path d="M49.9333 34.3908L49.9393 34.3888L43.372 20.0596L44.9647 19.267L44.3687 18.0736L42.816 18.847L42.606 18.389C42.4525 18.0543 42.0568 17.9074 41.7222 18.0608C41.577 18.1274 41.4606 18.2438 41.394 18.389L41.2067 18.7983C40.0767 18.2735 38.8459 18.0011 37.6 18.0003H32V16.667H33.3333V15.3337H32.1873L32.6667 13.4157C33.0347 11.943 32.1392 10.4507 30.6664 10.0826C29.1937 9.71465 27.7014 10.6101 27.3333 12.0829C27.224 12.5204 27.224 12.9781 27.3333 13.4156L27.8127 15.3336H26.6667V16.6669H28V18.0002H22.4033C21.1562 18.0012 19.9242 18.2742 18.7933 18.8002L18.606 18.3909C18.4526 18.0562 18.0568 17.9093 17.7222 18.0627C17.577 18.1293 17.4606 18.2457 17.394 18.3909L17.184 18.8489L15.6313 18.0722L15.0353 19.2669L16.628 20.0629L10.0607 34.3888C10.0202 34.4759 9.99951 34.5708 10 34.6668C10.0029 37.2429 12.0906 39.3305 14.6667 39.3334H21.3333C23.9094 39.3305 25.9971 37.2429 26 34.6668C25.9983 34.5711 25.9756 34.4768 25.9333 34.3908L19.348 20.0076C20.3053 19.5633 21.348 19.3333 22.4033 19.3336H28V43.7241L25.724 46H23.3333C21.4933 46.0022 20.0022 47.4934 20 49.3333C20 49.7015 20.2985 50 20.6667 50H39.3333C39.7015 50 40 49.7015 40 49.3333C39.9978 47.4934 38.5067 46.0022 36.6667 46H34.276L32 43.7241V19.3336H37.6C38.6553 19.3333 39.6981 19.5633 40.6553 20.0076L34.0607 34.3888C34.0202 34.4759 33.9995 34.5708 34 34.6668C34.0029 37.2429 36.0906 39.3305 38.6667 39.3334H45.3333C47.9094 39.3305 49.9971 37.2429 50 34.6668C49.9984 34.5711 49.9757 34.4768 49.9333 34.3908ZM21.3333 38.0001H14.6667C13.0832 37.9984 11.7188 36.8845 11.4 35.3335H24.6C24.2813 36.8845 22.9168 37.9984 21.3333 38.0001ZM24.2947 34.0002H11.7053L17.8293 20.6396C17.9412 20.6696 18.0588 20.6696 18.1707 20.6396L24.2947 34.0002ZM28.8847 11.8777C29.4038 11.2617 30.3241 11.1833 30.9401 11.7025C31.0033 11.7558 31.062 11.8145 31.1153 11.8777C31.385 12.2207 31.4803 12.6694 31.3733 13.0924L30.8127 15.3337H29.1873L28.6267 13.0924C28.5198 12.6694 28.6151 12.2207 28.8847 11.8777ZM29.3333 18.0003V16.667H30.6667V18.0003H29.3333ZM30.6667 19.3336V43.3334H29.3333V19.3336H30.6667ZM36.6667 47.3334C37.514 47.3344 38.2691 47.8682 38.5527 48.6667H21.4473C21.7309 47.8682 22.486 47.3344 23.3333 47.3334H36.6667ZM32.3907 46H27.6093L28.9427 44.6667H31.0573L32.3907 46ZM41.828 20.6416C41.9381 20.6804 42.0588 20.6754 42.1653 20.6276L48.2947 34.0002H35.7053L41.828 20.6416ZM45.3333 38.0001H38.6667C37.0832 37.9984 35.7188 36.8845 35.4 35.3335H48.6C48.2813 36.8845 46.9168 37.9984 45.3333 38.0001Z" fill="#D22027"/>
</svg>
