<svg width="40" height="40" viewBox="0 0 40 40" fill="none" xmlns="http://www.w3.org/2000/svg">
<path d="M19.8739 40C30.8499 40 39.7478 31.1021 39.7478 20.1261C39.7478 9.15004 30.8499 0.252197 19.8739 0.252197C8.89784 0.252197 0 9.15004 0 20.1261C0 31.1021 8.89784 40 19.8739 40Z" fill="#D22027"/>
<path d="M19.5549 25.8602H20.6619C20.6619 25.8602 20.9939 25.8202 21.1639 25.6352C21.3229 25.4632 21.3179 25.1482 21.3179 25.1482C21.3179 25.1482 21.2969 23.6582 21.9839 23.4392C22.6639 23.2212 23.5329 24.8772 24.4599 25.5162C25.1549 25.9962 25.6829 25.8932 25.6829 25.8932L28.1539 25.8602C28.1539 25.8602 29.4439 25.7762 28.8339 24.7562C28.7839 24.6722 28.4749 24.0022 26.9979 22.6212C25.4509 21.1772 25.6559 21.4092 27.5219 18.9122C28.6539 17.3942 29.1129 16.4672 28.9679 16.0672C28.8329 15.6892 27.9979 15.7882 27.9979 15.7882L25.2209 15.8072C25.2209 15.8072 25.0119 15.7792 24.8599 15.8712C24.7129 15.9572 24.6139 16.1682 24.6139 16.1682C24.6139 16.1682 24.1769 17.3452 23.5879 18.3452C22.3489 20.4582 21.8589 20.5682 21.6529 20.4422C21.1819 20.1342 21.3009 19.2112 21.3009 18.5552C21.3009 16.5102 21.6079 15.6572 20.6989 15.4362C20.3959 15.3652 20.1739 15.3152 19.4029 15.3052C18.4089 15.2952 17.5719 15.3092 17.0959 15.5442C16.7789 15.7012 16.5349 16.0452 16.6839 16.0642C16.8689 16.0922 17.2809 16.1782 17.5059 16.4772C17.7889 16.8702 17.7799 17.7452 17.7799 17.7452C17.7799 17.7452 17.9419 20.1482 17.3949 20.4502C17.0169 20.6582 16.5049 20.2382 15.4049 18.3252C14.841 17.3422 14.413 16.2592 14.413 16.2592C14.413 16.2592 14.33 16.0522 14.184 15.9452C14.004 15.8122 13.754 15.7742 13.754 15.7742L11.118 15.7902C11.118 15.7902 10.72 15.8012 10.572 15.9732C10.445 16.1272 10.562 16.4462 10.562 16.4462C10.562 16.4462 12.628 21.3082 14.9709 23.7592C17.1209 26.0012 19.5549 25.8602 19.5549 25.8602Z" fill="white"/>
</svg>
